<svg preserveAspectRatio="none" width="100%" height="100%" overflow="visible" style="display: block;" viewBox="0 0 167.002 28.9998" fill="none" xmlns="http://www.w3.org/2000/svg">
<g id="Group">
<path id="Vector" d="M167.002 7.40739V9.53455H161.074L160.897 9.54525L160.72 9.56663L160.553 9.6094L160.396 9.67353L160.239 9.74835L160.093 9.83387L159.947 9.95145L159.812 10.069L159.687 10.208L159.582 10.3576L159.498 10.5073L159.415 10.6676L159.363 10.828L159.32 10.999L159.3 11.1807L159.289 11.3624V11.6297L159.3 11.8114L159.32 11.9931L159.363 12.1642L159.415 12.3246L159.498 12.4848L159.582 12.6344L159.687 12.7734L159.812 12.9124L159.947 13.0406L160.093 13.1475L160.239 13.2436L160.396 13.3186L160.553 13.3827L160.72 13.4254L160.897 13.4469L161.074 13.4576H163.151H163.349L163.548 13.4682L163.737 13.4896L163.924 13.5217L164.101 13.5644L164.279 13.618L164.456 13.6713L164.623 13.7461L164.8 13.821L164.957 13.9065L165.124 14.0026L165.281 14.1096L165.437 14.2165L165.583 14.3447L165.73 14.473L165.876 14.612L166.011 14.7616L166.136 14.9114L166.262 15.0609L166.367 15.2212L166.47 15.3816L166.565 15.5419L166.648 15.7129L166.721 15.884L166.784 16.0658L166.846 16.2368L166.888 16.4291L166.93 16.6109L166.961 16.8033L166.982 16.9957L167.002 17.1881V17.3912V17.6584V17.8614L166.982 18.0645L166.961 18.2571L166.93 18.4495L166.888 18.6418L166.846 18.8236L166.784 19.0053L166.721 19.1762L166.648 19.3579L166.565 19.529L166.47 19.6894L166.367 19.8497L166.262 20.0101L166.136 20.1597L166.011 20.3094L165.876 20.4591L165.73 20.5979L165.583 20.7369L165.437 20.8545L165.281 20.972L165.124 21.0683L164.957 21.1645L164.8 21.25L164.623 21.3248L164.456 21.3997L164.279 21.4531L164.101 21.5065L163.924 21.5492L163.737 21.5815L163.548 21.6028L163.349 21.6135H163.151H157.202V19.4863H163.151L163.339 19.4755L163.506 19.4542L163.673 19.4115L163.829 19.3473L163.987 19.2725L164.132 19.187L164.268 19.0694L164.404 18.9518L164.53 18.8129L164.633 18.6632L164.717 18.5136L164.79 18.3532L164.852 18.1929L164.884 18.0218L164.915 17.8401V17.6584V17.3912V17.2094L164.884 17.0277L164.852 16.8567L164.79 16.6964L164.717 16.5467L164.633 16.397L164.53 16.2475L164.404 16.1192L164.268 15.9908L164.132 15.884L163.987 15.7878L163.829 15.7237L163.673 15.6596L163.506 15.6167L163.339 15.5953L163.151 15.5847H161.074H160.876L160.677 15.5633L160.489 15.5419L160.302 15.5099L160.114 15.4777L159.937 15.4243L159.759 15.3602L159.582 15.2961L159.415 15.2212L159.248 15.1357L159.091 15.0395L158.935 14.9327L158.778 14.8151L158.632 14.6974L158.475 14.5584L158.339 14.4195L158.204 14.2699L158.068 14.1202L157.953 13.9598L157.838 13.8102L157.745 13.6393L157.65 13.479L157.567 13.3079L157.483 13.1369L157.421 12.9658L157.369 12.7842L157.316 12.6024L157.275 12.4099L157.244 12.2176L157.223 12.0252L157.213 11.8328L157.202 11.6297V11.3624L157.213 11.1593L157.223 10.9562L157.244 10.7638L157.275 10.5714L157.316 10.379L157.369 10.1973L157.421 10.0156L157.483 9.84454L157.567 9.66283L157.65 9.49181L157.745 9.33146L157.838 9.17113L157.953 9.01078L158.068 8.86114L158.204 8.71149L158.339 8.56184L158.475 8.42288L158.632 8.28392L158.778 8.16633L158.935 8.04875L159.091 7.95255L159.248 7.85635L159.415 7.77084L159.582 7.69601L159.759 7.62119L159.937 7.56773L160.114 7.51428L160.302 7.47154L160.489 7.43946L160.677 7.41809L160.876 7.40739H161.074H167.002Z" fill="var(--fill-0, #0A0A0A)"/>
<path id="Vector_2" d="M140.25 21.6029V13.415H142.326V19.465H145.145H145.291L145.437 19.4544L145.573 19.433L145.709 19.4116L145.844 19.3795L145.98 19.3475L146.105 19.3046L146.231 19.2513L146.355 19.1978L146.47 19.1338L146.596 19.0588L146.711 18.984L146.815 18.8985L146.93 18.813L147.035 18.7168L147.138 18.6099L147.243 18.503L147.336 18.3961L147.42 18.2786L147.503 18.161L147.577 18.0435L147.639 17.9257L147.703 17.8081L147.754 17.68L147.806 17.5516L147.848 17.4234L147.88 17.2844L147.911 17.1455L147.932 17.0172L147.953 16.8676L147.963 16.7286V16.579V12.3994V12.2498L147.953 12.1108L147.932 11.9719L147.911 11.8329L147.88 11.6939L147.848 11.5656L147.806 11.4267L147.754 11.2984L147.703 11.1808L147.639 11.0526L147.577 10.935L147.503 10.8174L147.42 10.6998L147.336 10.5823L147.243 10.4754L147.138 10.3685L147.035 10.2616L146.93 10.1654L146.815 10.0799L146.711 9.99435L146.596 9.91952L146.47 9.84469L146.355 9.78055L146.231 9.72711L146.105 9.67366L145.98 9.63091L145.844 9.59884L145.709 9.56678L145.573 9.54539L145.437 9.52401L145.291 9.51333H145.145H140.25V7.38615H145.145H145.396L145.646 7.40755L145.886 7.43962L146.126 7.47168L146.355 7.52512L146.585 7.58926L146.804 7.66409L147.023 7.7496L147.233 7.8458L147.441 7.95269L147.65 8.08096L147.848 8.20923L148.047 8.35889L148.235 8.50853L148.422 8.67957L148.61 8.8506L148.777 9.043L148.944 9.2354L149.09 9.42781L149.237 9.63091L149.361 9.834L149.487 10.0478L149.591 10.2616L149.685 10.4754L149.769 10.6998L149.841 10.9243L149.905 11.1594L149.957 11.4054L149.998 11.6405L150.019 11.8863L150.041 12.1429V12.3994V16.579V16.8355L150.019 17.0919L149.998 17.3379L149.957 17.5838L149.905 17.8189L149.841 18.0541L149.769 18.2786L149.685 18.503L149.591 18.7274L149.487 18.9412L149.361 19.1443L149.237 19.3475L149.09 19.5506L148.944 19.743L148.777 19.9353L148.61 20.1278L148.422 20.2988L148.235 20.4699L148.047 20.6303L147.848 20.7691L147.65 20.8974L147.441 21.0257L147.233 21.1325L147.023 21.2287L146.804 21.3142L146.585 21.3891L146.355 21.4532L146.126 21.5066L145.886 21.5495L145.646 21.5708L145.396 21.5922L145.145 21.6029H140.25Z" fill="var(--fill-0, #0A0A0A)"/>
<path id="Vector_3" d="M123.171 9.51333V7.38615H132.961V9.51333H123.171Z" fill="var(--fill-0, #0A0A0A)"/>
<path id="Vector_4" d="M132.961 15.5422H125.248V19.4652H132.961V21.603H123.171V13.4151H132.961V15.5422Z" fill="var(--fill-0, #0A0A0A)"/>
<path id="Vector_5" d="M106.589 9.51333V7.38615H116.389V9.51333H106.589Z" fill="var(--fill-0, #0A0A0A)"/>
<path id="Vector_6" d="M106.589 13.4151H116.389V15.5422H108.676V21.603H106.589V13.4151Z" fill="var(--fill-0, #0A0A0A)"/>
<path id="Vector_7" d="M0 19.465H4.843H4.98914L5.13524 19.4543L5.27093 19.4329L5.40661 19.4115L5.54231 19.3795L5.67801 19.3474L5.80324 19.3047L5.9285 19.2512L6.05374 19.1978L6.16856 19.1336L6.2938 19.0588L6.40862 18.984L6.51299 18.8984L6.62781 18.8129L6.73217 18.7167L6.83656 18.6099L6.94092 18.503L7.03487 18.396L7.11836 18.2785L7.20189 18.1609L7.27493 18.0434L7.33756 17.9258L7.40017 17.8081L7.45239 17.6799L7.50457 17.5517L7.54631 17.4233L7.57761 17.2843L7.60892 17.1454L7.6298 17.0172L7.6507 16.8675L7.66114 16.7285V16.579V7.14026H9.73818V16.579V16.8355L9.71731 17.092L9.69643 17.3378L9.65469 17.5837L9.60249 17.8188L9.53988 18.054L9.46681 18.2785L9.3833 18.503L9.28938 18.7275L9.18501 18.9412L9.05975 19.1444L8.93449 19.3474L8.78839 19.5505L8.64225 19.7536L8.47524 19.9353L8.30826 20.1277L8.12039 20.3095L7.9325 20.4698L7.74463 20.6302L7.54631 20.7691L7.34799 20.8974L7.13924 21.0256L6.93049 21.1325L6.72174 21.2288L6.50255 21.3143L6.28336 21.3891L6.05374 21.4532L5.81367 21.5066L5.58405 21.5495L5.344 21.5708L5.0935 21.5922L4.843 21.6029H0V19.465Z" fill="var(--fill-0, #0A0A0A)"/>
<path id="Vector_8" fill-rule="evenodd" clip-rule="evenodd" d="M7.70201 2.24493H9.79993V4.61795H7.70201V2.24493Z" fill="var(--fill-0, #0A0A0A)"/>
<path id="Vector_9" fill-rule="evenodd" clip-rule="evenodd" d="M55.8102 2.24493H57.908V4.61795H55.8102V2.24493Z" fill="var(--fill-0, #0A0A0A)"/>
<path id="Vector_10" d="M60.4139 7.38615V9.2354V9.51333H55.5084L55.3726 9.52401H55.2266L55.0909 9.54539L54.9447 9.56678L54.8194 9.59884L54.6838 9.63091L54.5586 9.68436L54.4333 9.72711L54.3081 9.78055L54.1828 9.84469L54.0679 9.91952L53.9531 9.99435L53.8384 10.0799L53.7339 10.1654L53.6191 10.2616L53.5148 10.3685L53.4209 10.4754L53.3269 10.5823L53.2434 10.6998L53.1599 10.8174L53.0869 10.935L53.0138 11.0526L52.9616 11.1808L52.8989 11.2984L52.8572 11.4267L52.8154 11.5656L52.7737 11.6939L52.7529 11.8329L52.7216 11.9719L52.7111 12.1108L52.7006 12.2498V12.3994V16.579V16.7286L52.7111 16.8676L52.7216 17.0172L52.7529 17.1562L52.7737 17.2844L52.8154 17.4234L52.8572 17.5516L52.8989 17.68L52.9616 17.8081L53.0138 17.9257L53.0869 18.0435L53.1599 18.1716L53.2434 18.2786L53.3269 18.3961L53.4209 18.503L53.5148 18.6099L53.6191 18.7168L53.7339 18.813L53.8384 18.8985L53.9531 18.984L54.0679 19.0588L54.1828 19.1338L54.3081 19.1978L54.4333 19.2513L54.5586 19.3046L54.6838 19.3475L54.8194 19.3795L54.9447 19.4116L55.0909 19.433L55.2266 19.4544L55.3726 19.465H55.5084H58.3264V13.415H60.4139V18.1075V19.465V20.844V21.6029H55.5084L55.2579 21.5922L55.0178 21.5708L54.7777 21.5495L54.5376 21.5066L54.3081 21.4532L54.0784 21.3891L53.8592 21.3142L53.6401 21.2287L53.4209 21.1325L53.2121 21.0257L53.0034 20.8974L52.8051 20.7691L52.6067 20.6303L52.4189 20.4699L52.2309 20.3095L52.0536 20.1278L51.8761 19.9353L51.7196 19.7537L51.5629 19.5506L51.4273 19.3475L51.2916 19.1443L51.1768 18.9412L51.0724 18.7274L50.9784 18.503L50.8846 18.2786L50.8114 18.0541L50.7593 17.8189L50.7071 17.5838L50.6654 17.3379L50.6341 17.0919L50.6236 16.8355L50.6131 16.579V12.3994L50.6236 12.1429L50.6341 11.8863L50.6654 11.6405L50.7071 11.4054L50.7593 11.1594L50.8114 10.935L50.8846 10.6998L50.9784 10.4754L51.0724 10.2616L51.1768 10.0478L51.2916 9.834L51.4273 9.63091L51.5629 9.42781L51.7196 9.2354L51.8761 9.043L52.0536 8.8506L52.2309 8.67957L52.4189 8.50853L52.6067 8.35889L52.8051 8.20923L53.0034 8.08096L53.2121 7.96339L53.4209 7.8458L53.6401 7.7496L53.8592 7.66409L54.0784 7.58926L54.3081 7.52512L54.5376 7.47168L54.7777 7.43962L55.0178 7.40755L55.2579 7.38615H55.5084H60.4139Z" fill="var(--fill-0, #0A0A0A)"/>
<path id="Vector_11" fill-rule="evenodd" clip-rule="evenodd" d="M60.42 21.6028H16.5825V19.465H58.2909L60.42 21.6028Z" fill="var(--fill-0, #0A0A0A)"/>
<path id="Vector_12" d="M18.5701 9.51333H23.173L23.3191 9.52401H23.4653L23.6009 9.54539L23.7366 9.56678L23.8723 9.59884L24.008 9.63091L24.1333 9.68436L24.2585 9.72711L24.3837 9.78055L24.509 9.84469L24.6238 9.91952L24.7387 9.99435L24.8534 10.0799L24.9578 10.1654L25.0621 10.2616L25.1666 10.3685L25.2709 10.4754L25.365 10.5823L25.4485 10.6998L25.5319 10.8174L25.6049 10.935L25.6676 11.0526L25.7301 11.1808L25.7928 11.2984L25.8346 11.4267L25.8763 11.5656L25.9181 11.6939L25.9389 11.8329L25.9702 11.9719L25.9806 12.1108L25.9911 12.2498V12.3994V19.7857H28.0787V12.3994L28.0681 12.1429L28.0578 11.8863L28.0264 11.6405L27.9846 11.4054L27.9324 11.1594L27.87 10.935L27.7968 10.6998L27.7133 10.4754L27.6195 10.2616L27.5149 10.0478L27.4001 9.83401L27.2644 9.63091L27.1288 9.42781L26.9723 9.2354L26.8156 9.043L26.6382 8.8506L26.4608 8.67957L26.2729 8.50853L26.0747 8.35889L25.8868 8.20923L25.678 8.08096L25.4796 7.96339L25.2709 7.8458L25.0517 7.7496L24.8326 7.66409L24.6133 7.58926L24.3837 7.52512L24.1541 7.47168L23.9141 7.43962L23.674 7.40755L23.4235 7.38615H23.173H18.5701V9.51333Z" fill="var(--fill-0, #0A0A0A)"/>
<path id="Vector_13" fill-rule="evenodd" clip-rule="evenodd" d="M79.6294 15.4994V26.6483L76.9156 25.0343V17.1135L79.6294 15.4994Z" fill="var(--fill-0, #A10000)"/>
<path id="Vector_14" fill-rule="evenodd" clip-rule="evenodd" d="M80.9854 11.149L71.5709 16.7182V13.5007L78.2717 9.53496L80.9854 11.149Z" fill="var(--fill-0, #A10000)"/>
<path id="Vector_15" fill-rule="evenodd" clip-rule="evenodd" d="M74.2846 11.897V23.0351L71.5709 21.4318V13.5003L74.2846 11.897Z" fill="var(--fill-0, #E00000)"/>
<path id="Vector_16" fill-rule="evenodd" clip-rule="evenodd" d="M76.9156 21.8273L86.3407 27.3964L83.6166 28.9998L76.9156 25.0341V21.8273Z" fill="var(--fill-0, #E00000)"/>
<path id="Vector_17" fill-rule="evenodd" clip-rule="evenodd" d="M82.2475 18.2252L91.6726 23.7943L88.9589 25.3978L82.2475 21.432V18.2252Z" fill="var(--fill-0, #A10000)"/>
<path id="Vector_18" fill-rule="evenodd" clip-rule="evenodd" d="M86.4138 17.4448L95.8284 11.8757V15.0933L89.1276 19.0589L86.4138 17.4448Z" fill="var(--fill-0, #A10000)"/>
<path id="Vector_19" fill-rule="evenodd" clip-rule="evenodd" d="M87.7185 13.5006V2.35168L90.4323 3.96575V11.8865L87.7185 13.5006Z" fill="var(--fill-0, #A10000)"/>
<path id="Vector_20" fill-rule="evenodd" clip-rule="evenodd" d="M85.0343 10.3899L75.6197 4.82082L78.3335 3.20673L85.0343 7.17245V10.3899Z" fill="var(--fill-0, #A10000)"/>
<path id="Vector_21" fill-rule="evenodd" clip-rule="evenodd" d="M81.0463 4.82082L71.6316 10.3899V7.17245L78.3326 3.20673L81.0463 4.82082Z" fill="var(--fill-0, #E00000)"/>
<path id="Vector_22" fill-rule="evenodd" clip-rule="evenodd" d="M90.4314 7.1725L81.0167 1.60339L83.7305 0L90.4314 3.96573V7.1725Z" fill="var(--fill-0, #E00000)"/>
<path id="Vector_23" fill-rule="evenodd" clip-rule="evenodd" d="M93.1112 16.6965V5.55841L95.8249 7.1618V15.0933L93.1112 16.6965Z" fill="var(--fill-0, #E00000)"/>
<path id="Vector_24" fill-rule="evenodd" clip-rule="evenodd" d="M86.2355 23.7943L95.6605 18.2252V21.432L88.9597 25.3978L86.2355 23.7943Z" fill="var(--fill-0, #E00000)"/>
</g>
</svg>
